<svg width="12" height="12" viewBox="0 0 12 12" fill="none" xmlns="http://www.w3.org/2000/svg">
<path d="M8.45091 8.45091C8.56877 8.43344 8.67371 8.40975 8.77254 8.37764C9.53364 8.13035 10.1303 7.53364 10.3776 6.77254C10.5 6.39596 10.5 5.93064 10.5 5C10.5 4.06936 10.5 3.60404 10.3776 3.22746C10.1303 2.46636 9.53364 1.86965 8.77254 1.62236C8.39596 1.5 7.93064 1.5 7 1.5C6.06936 1.5 5.60404 1.5 5.22746 1.62236C4.46636 1.86965 3.86965 2.46636 3.62236 3.22746C3.59025 3.32629 3.56656 3.43123 3.54909 3.54909M8.45091 8.45091C8.5 8.11967 8.5 7.6864 8.5 7C8.5 6.06936 8.5 5.60404 8.37764 5.22746C8.13035 4.46636 7.53364 3.86965 6.77254 3.62236C6.39596 3.5 5.93064 3.5 5 3.5C4.3136 3.5 3.88033 3.5 3.54909 3.54909M8.45091 8.45091C8.43344 8.56877 8.40975 8.67371 8.37764 8.77254C8.13035 9.53364 7.53364 10.1303 6.77254 10.3776C6.39596 10.5 5.93064 10.5 5 10.5C4.06936 10.5 3.60404 10.5 3.22746 10.3776C2.46636 10.1303 1.86965 9.53364 1.62236 8.77254C1.5 8.39596 1.5 7.93064 1.5 7C1.5 6.06936 1.5 5.60404 1.62236 5.22746C1.86965 4.46636 2.46636 3.86965 3.22746 3.62236C3.32629 3.59025 3.43123 3.56656 3.54909 3.54909" stroke="white" stroke-opacity="0.32" stroke-linecap="round" stroke-linejoin="round"/>
</svg>
