<svg width="20" height="20" viewBox="0 0 20 20" fill="none" xmlns="http://www.w3.org/2000/svg">
<path d="M9.99992 2.5L9.99992 4M9.99992 4L9.99992 10M9.99992 4H8.61103C7.07691 4 5.83325 5.34315 5.83325 7C5.83325 8.65685 7.07691 10 8.61103 10H9.99992M9.99992 4H11.4763C12.7707 4 13.8582 4.95608 14.1666 6.25M9.99992 10V16M9.99992 10L11.3888 10C12.9229 10 14.1666 11.3431 14.1666 13C14.1666 14.6569 12.9229 16 11.3888 16H9.99992M9.99992 16V17.5M9.99992 16H8.52352C7.22918 16 6.14161 15.0439 5.83325 13.75" stroke="#4672ED" stroke-width="1.5" stroke-linecap="round" stroke-linejoin="round"/>
</svg>
