<svg width="16" height="17" viewBox="0 0 16 17" fill="none" xmlns="http://www.w3.org/2000/svg">
<path d="M6.66659 8.49984C6.66659 7.76346 7.26354 7.1665 7.99992 7.1665C8.7363 7.1665 9.33325 7.76346 9.33325 8.49984C9.33325 9.23622 8.7363 9.83317 7.99992 9.83317C7.26354 9.83317 6.66659 9.23622 6.66659 8.49984Z" fill="#4672ED"/>
<path fill-rule="evenodd" clip-rule="evenodd" d="M3.16323 5.18558C4.29729 4.09688 5.95499 3.1665 7.99992 3.1665C10.0448 3.1665 11.7025 4.09688 12.8366 5.18558C13.4041 5.7304 13.8521 6.32517 14.1617 6.88596C14.4617 7.42936 14.6666 8.00414 14.6666 8.49984C14.6666 8.99553 14.4617 9.57031 14.1617 10.1137C13.8521 10.6745 13.4041 11.2693 12.8366 11.8141C11.7025 12.9028 10.0448 13.8332 7.99992 13.8332C5.95499 13.8332 4.29729 12.9028 3.16323 11.8141C2.59571 11.2693 2.14776 10.6745 1.83816 10.1137C1.53816 9.57031 1.33325 8.99553 1.33325 8.49984C1.33325 8.00414 1.53816 7.42936 1.83816 6.88596C2.14776 6.32517 2.59571 5.7304 3.16323 5.18558ZM7.99992 5.83317C6.52716 5.83317 5.33325 7.02708 5.33325 8.49984C5.33325 9.9726 6.52716 11.1665 7.99992 11.1665C9.47268 11.1665 10.6666 9.9726 10.6666 8.49984C10.6666 7.02708 9.47268 5.83317 7.99992 5.83317Z" fill="#4672ED"/>
</svg>
