<svg width="12" height="13" viewBox="0 0 12 13" fill="none" xmlns="http://www.w3.org/2000/svg">
<path fill-rule="evenodd" clip-rule="evenodd" d="M5.75 1.5C4.23122 1.5 3 2.73122 3 4.25V5.26795C2.6658 5.46089 2.39386 5.74686 2.21799 6.09202C2.09434 6.33469 2.04506 6.59304 2.0221 6.87409C1.99999 7.14468 1.99999 7.47686 2 7.87934V8.62065C1.99999 9.02313 1.99999 9.35532 2.0221 9.62591C2.04506 9.90696 2.09434 10.1653 2.21799 10.408C2.40973 10.7843 2.7157 11.0903 3.09202 11.282C3.33469 11.4057 3.59304 11.4549 3.87409 11.4779C4.14468 11.5 4.47686 11.5 4.87934 11.5H6.62066C7.02314 11.5 7.35532 11.5 7.62591 11.4779C7.90696 11.4549 8.16531 11.4057 8.40798 11.282C8.78431 11.0903 9.09027 10.7843 9.28201 10.408C9.40566 10.1653 9.45494 9.90696 9.4779 9.62591C9.50001 9.35531 9.50001 9.02313 9.5 8.62064V7.87936C9.50001 7.47687 9.50001 7.14469 9.4779 6.87409C9.45494 6.59304 9.40566 6.33469 9.28201 6.09202C9.10614 5.74686 8.8342 5.46089 8.5 5.26795V4.25C8.5 2.73122 7.26878 1.5 5.75 1.5ZM4.81694 4.99998C4.51167 4.99987 4.24096 4.99977 4 5.0136V4.25C4 3.2835 4.7835 2.5 5.75 2.5C6.7165 2.5 7.5 3.2835 7.5 4.25V5.0136C7.25904 4.99977 6.98833 4.99987 6.68306 4.99998H4.81694Z" fill="#8B919D"/>
</svg>
