<svg width="12" height="12" viewBox="0 0 12 12" fill="none" xmlns="http://www.w3.org/2000/svg">
<path d="M9.09423 4.5C9.58773 4.87012 10.0334 5.2995 10.4213 5.77821C10.4738 5.84296 10.5 5.92148 10.5 6M9.09423 7.5C9.58773 7.12988 10.0334 6.7005 10.4213 6.22179C10.4738 6.15704 10.5 6.07852 10.5 6M10.5 6H4M6.5 2.26389C5.96924 1.78885 5.26835 1.5 4.5 1.5C2.84315 1.5 1.5 2.84315 1.5 4.5V7.5C1.5 9.15685 2.84315 10.5 4.5 10.5C5.26835 10.5 5.96924 10.2111 6.5 9.73611" stroke="#DF6A70" stroke-linecap="round" stroke-linejoin="round"/>
</svg>
