<svg width="14" height="14" viewBox="0 0 14 14" fill="none" xmlns="http://www.w3.org/2000/svg">
<path d="M6.41638 7C6.41638 6.67783 6.67754 6.41667 6.99971 6.41667C7.32188 6.41667 7.58304 6.67783 7.58304 7C7.58304 7.32217 7.32188 7.58333 6.99971 7.58333C6.67754 7.58333 6.41638 7.32217 6.41638 7Z" stroke="white" stroke-linecap="round" stroke-linejoin="round"/>
<path d="M4.99392 2.51967C5.72462 2.09807 6.08998 1.88726 6.4784 1.80475C6.82208 1.73175 7.17727 1.73175 7.52095 1.80475C7.90937 1.88726 8.27473 2.09807 9.00543 2.51967L9.87933 3.0239C10.61 3.44551 10.9754 3.65631 11.2411 3.95122C11.4762 4.21217 11.6538 4.51958 11.7624 4.85353C11.8851 5.23095 11.8851 5.65256 11.8851 6.49577V7.50423C11.8851 8.34744 11.8851 8.76905 11.7624 9.14647C11.6538 9.48042 11.4762 9.78783 11.2411 10.0488C10.9754 10.3437 10.61 10.5545 9.87933 10.9761L9.00543 11.4803C8.27473 11.9019 7.90937 12.1127 7.52095 12.1952C7.17727 12.2683 6.82208 12.2683 6.4784 12.1952C6.08998 12.1127 5.72462 11.9019 4.99392 11.4803L4.12002 10.9761C3.38931 10.5545 3.02396 10.3437 2.75824 10.0488C2.52314 9.78783 2.34554 9.48042 2.23697 9.14647C2.11426 8.76905 2.11426 8.34744 2.11426 7.50423V6.49577C2.11426 5.65256 2.11426 5.23095 2.23697 4.85353C2.34554 4.51958 2.52314 4.21217 2.75824 3.95122C3.02396 3.65631 3.38931 3.44551 4.12002 3.0239L4.99392 2.51967Z" stroke="white" stroke-linecap="round" stroke-linejoin="round"/>
</svg>
